<svg xmlns="http://www.w3.org/2000/svg" viewBox="0 0 128 128" role="img" aria-label="Meat Up favicon">
  <rect x="8" y="8" width="112" height="112" rx="26" fill="#111111"/>
  <path
    d="M64 26c-17 0-31 13.4-31 30.4 0 6.7 2.4 13.1 6.9 18.2l20.7 24.9a4.4 4.4 0 0 0 6.8 0l20.7-24.9c4.5-5.1 6.9-11.5 6.9-18.2C95 39.4 81 26 64 26Z"
    fill="#E04F5F"
    stroke="#FFFFFF"
    stroke-width="3"
    stroke-linejoin="round"
  />
  <circle cx="64" cy="61" r="16" fill="#FFDB58" stroke="#111111" stroke-width="3" />
  <circle cx="70.5" cy="55.5" r="5.5" fill="#FFFFFF" opacity="0.9" />
  <path d="M45 94c5.4 4 12.1 6.3 19 6.3s13.6-2.3 19-6.3L64 108 45 94Z" fill="#111111" opacity="0.85" />
</svg>
